<?xml version="1.0" encoding="iso-8859-1"?>
<!-- Uploaded to: SVG Repo, www.svgrepo.com, Generator: SVG Repo Mixer Tools -->
<svg height="800px" width="800px" version="1.1" id="Layer_1" xmlns="http://www.w3.org/2000/svg" xmlns:xlink="http://www.w3.org/1999/xlink" 
	 viewBox="0 0 512 512" xml:space="preserve">
<g transform="translate(1 1)">
	<g>
		<path style="fill:#FFDD09;" d="M161.235,101.4l-128,196.267V357.4l56.32-24.747l71.68-103.253
			C161.235,229.4,161.235,102.253,161.235,101.4"/>
		<path style="fill:#FFDD09;" d="M348.969,109.933v177.493c30.72,36.693,73.387,69.12,128,69.973L348.969,109.933z"/>
	</g>
	<g>
		<path style="fill:#FD9808;" d="M33.235,297.667l26.453-40.96l10.24,43.52L33.235,357.4V297.667z"/>
		<path style="fill:#FD9808;" d="M89.555,332.653l29.867-42.667l-49.493,10.24L33.235,357.4L89.555,332.653z"/>
	</g>
	<path style="fill:#FFDD09;" d="M255.102,502.467L255.102,502.467c-38.4,0-69.12-30.72-69.12-69.12V76.653
		c0-38.4,30.72-69.12,69.12-69.12l0,0c38.4,0,69.12,30.72,69.12,69.12v355.84C325.075,471.747,293.502,502.467,255.102,502.467"/>
	<path style="fill:#FFFFFF;" d="M185.982,433.347V76.653c0-38.4,30.72-69.12,69.12-69.12c-52.053,0-93.867,41.813-93.867,93.867
		v307.2c0,52.053,41.813,93.867,93.867,93.867C216.702,502.467,185.982,471.747,185.982,433.347"/>
	<path style="fill:#FD9808;" d="M255.102,7.533c38.4,0,69.12,30.72,69.12,69.12v355.84c0,38.4-30.72,69.12-69.12,69.12
		c52.053,0,93.867-41.813,93.867-93.867V101.4C348.969,49.347,307.155,7.533,255.102,7.533"/>
	<path style="fill:#54C9FD;" d="M272.169,84.333c0-23.893-13.653-42.667-29.867-42.667s-29.867,18.773-29.867,42.667
		S226.089,127,242.302,127S272.169,108.227,272.169,84.333"/>
	<path style="fill:#33A9F8;" d="M255.102,41.667c-2.56,0-5.12,0-7.68,0.853c14.507,3.413,24.747,20.48,24.747,41.813
		s-10.24,38.4-24.747,41.813c2.56,0.853,5.12,0.853,7.68,0.853c23.893,0,42.667-18.773,42.667-42.667S278.995,41.667,255.102,41.667
		"/>
	<path style="fill:#54C9FD;" d="M272.169,425.667c0-23.893-13.653-42.667-29.867-42.667s-29.867,18.773-29.867,42.667
		s13.653,42.667,29.867,42.667S272.169,449.56,272.169,425.667"/>
	<path style="fill:#33A9F8;" d="M255.102,383c-2.56,0-5.12,0-7.68,0.853c13.653,3.413,24.747,21.333,24.747,41.813
		s-10.24,38.4-24.747,41.813c2.56,0.853,5.12,0.853,7.68,0.853c23.893,0,42.667-18.773,42.667-42.667S278.995,383,255.102,383"/>
	<path style="fill:#54C9FD;" d="M289.235,229.4h-8.533v-34.133h-51.2V229.4h-34.133v51.2h34.133v34.133h51.2V280.6h8.533V229.4z"/>
	<path style="fill:#33A9F8;" d="M289.235,280.6h25.6v-51.2h-25.6V280.6z"/>
	<path d="M255.102,476.867c-28.16,0-51.2-23.04-51.2-51.2s23.04-51.2,51.2-51.2s51.2,23.04,51.2,51.2
		S283.262,476.867,255.102,476.867z M255.102,391.533c-18.773,0-34.133,15.36-34.133,34.133s15.36,34.133,34.133,34.133
		c18.773,0,34.133-15.36,34.133-34.133S273.875,391.533,255.102,391.533z"/>
	<path d="M255.102,135.533c-28.16,0-51.2-23.04-51.2-51.2s23.04-51.2,51.2-51.2s51.2,23.04,51.2,51.2
		S283.262,135.533,255.102,135.533z M255.102,50.2c-18.773,0-34.133,15.36-34.133,34.133s15.36,34.133,34.133,34.133
		c18.773,0,34.133-15.36,34.133-34.133S273.875,50.2,255.102,50.2z"/>
	<path d="M383.102,256.707c-3.413,0-5.973-1.707-7.68-5.12l-34.133-69.973c-1.707-4.267,0-9.387,4.267-11.093
		c4.267-1.707,9.387,0,11.093,4.267l34.133,69.973c1.707,4.267,0,9.387-4.267,11.093
		C385.662,255.853,384.809,256.707,383.102,256.707z"/>
	<path d="M255.102,511c-56.32,0-102.4-46.08-102.4-102.4V101.4c0-56.32,46.08-102.4,102.4-102.4s102.4,46.08,102.4,102.4v307.2
		C357.502,464.92,311.422,511,255.102,511z M255.102,16.067c-46.933,0-85.333,38.4-85.333,85.333v307.2
		c0,46.933,38.4,85.333,85.333,85.333s85.333-38.4,85.333-85.333V101.4C340.435,54.467,302.035,16.067,255.102,16.067z"/>
	<path d="M476.969,365.933L476.969,365.933c-62.293-1.707-107.52-40.96-134.827-73.387c-0.853-0.853-1.707-3.413-1.707-5.12V109.933
		c0-4.267,2.56-7.68,6.827-8.533c4.267-0.853,7.68,0.853,9.387,4.267l128,247.467c1.707,2.56,0.853,5.973,0,8.533
		C482.942,364.227,480.382,365.933,476.969,365.933z M357.502,284.013c22.187,26.453,58.027,57.173,104.96,63.147l-104.96-202.24
		V284.013z"/>
	<path d="M280.702,323.267h-51.2c-5.12,0-8.533-3.413-8.533-8.533v-25.6h-25.6c-5.12,0-8.533-3.413-8.533-8.533v-51.2
		c0-5.12,3.413-8.533,8.533-8.533h25.6v-25.6c0-5.12,3.413-8.533,8.533-8.533h51.2c5.12,0,8.533,3.413,8.533,8.533v25.6h25.6
		c5.12,0,8.533,3.413,8.533,8.533v51.2c0,5.12-3.413,8.533-8.533,8.533h-25.6v25.6C289.235,319.853,285.822,323.267,280.702,323.267
		z M238.035,306.2h34.133v-25.6c0-5.12,3.413-8.533,8.533-8.533h25.6v-34.133h-25.6c-5.12,0-8.533-3.413-8.533-8.533v-25.6h-34.133
		v25.6c0,5.12-3.413,8.533-8.533,8.533h-25.6v34.133h25.6c5.12,0,8.533,3.413,8.533,8.533V306.2z"/>
	<path d="M33.235,365.933c-0.853,0-1.707,0-2.56,0c-3.413-1.707-5.973-5.12-5.973-8.533v-59.733c0-1.707,0.853-3.413,1.707-4.267
		l26.453-40.96c1.707-2.56,5.12-4.267,8.533-3.413c3.413,0,5.973,2.56,6.827,5.973l10.24,43.52c0.853,2.56,0,4.267-0.853,6.827
		L40.915,362.52C39.209,364.227,35.795,365.933,33.235,365.933z M41.769,300.227v28.16l19.627-29.867l-5.12-20.48L41.769,300.227z"
		/>
	<path d="M33.235,365.933c-2.56,0-5.12-0.853-6.827-3.413c-2.56-2.56-2.56-6.827-0.853-10.24l36.693-57.173
		c0.853-1.707,3.413-3.413,5.12-3.413l49.493-10.24c3.413-0.853,6.827,0.853,8.533,3.413s1.707,6.827,0,9.387L95.529,336.92
		c0,2.56-0.853,3.413-2.56,4.267l-56.32,24.747C35.795,365.933,34.089,365.933,33.235,365.933z M75.902,307.907l-19.627,30.72
		l28.16-12.8l16.213-23.893L75.902,307.907z M89.555,332.653L89.555,332.653L89.555,332.653z"/>
	<path d="M33.235,365.933c-1.707,0-3.413-0.853-4.267-1.707c-2.56-0.853-4.267-4.267-4.267-6.827v-59.733
		c0-1.707,0.853-3.413,1.707-4.267l128-196.267c1.707-3.413,5.973-4.267,9.387-3.413c3.413,0.853,5.973,4.267,5.973,8.533
		c0,2.56,0,84.48,0,128c0,1.707-0.853,3.413-1.707,5.12l-70.827,102.4c-1.707,1.707-2.56,2.56-4.267,3.413l-56.32,24.747
		C35.795,365.933,34.942,365.933,33.235,365.933z M41.769,300.227V344.6l42.667-17.92l68.267-99.84c0-24.747,0-68.267,0-96.427
		L41.769,300.227z M161.235,101.4L161.235,101.4L161.235,101.4z"/>
</g>
</svg>